<mxfile host="65bd71144e">
    <diagram id="63XFqaJNnCOzj1Tr916l" name="Page-1">
        <mxGraphModel dx="1174" dy="475" grid="0" gridSize="10" guides="1" tooltips="1" connect="1" arrows="1" fold="1" page="1" pageScale="1" pageWidth="827" pageHeight="1169" math="0" shadow="0">
            <root>
                <mxCell id="0"/>
                <mxCell id="1" parent="0"/>
                <mxCell id="3" value="" style="rounded=1;whiteSpace=wrap;html=1;fillColor=default;" parent="1" vertex="1">
                    <mxGeometry x="120" y="131" width="845" height="470" as="geometry"/>
                </mxCell>
                <mxCell id="4" value="" style="outlineConnect=0;dashed=0;verticalLabelPosition=bottom;verticalAlign=top;align=center;html=1;shape=mxgraph.aws3.virtual_private_cloud;fillColor=#F58534;gradientColor=none;" parent="1" vertex="1">
                    <mxGeometry x="110" y="60" width="79.5" height="54" as="geometry"/>
                </mxCell>
                <mxCell id="5" value="" style="fillColor=#808080;aspect=fixed;sketch=0;pointerEvents=1;shadow=0;dashed=0;html=1;strokeColor=none;labelPosition=center;verticalLabelPosition=bottom;outlineConnect=0;verticalAlign=top;align=center;shape=mxgraph.openstack.neutron_subnet;" parent="1" vertex="1">
                    <mxGeometry x="244" y="131" width="50" height="50" as="geometry"/>
                </mxCell>
                <mxCell id="16" style="edgeStyle=none;html=1;exitX=1;exitY=0.5;exitDx=0;exitDy=0;entryX=0;entryY=0.5;entryDx=0;entryDy=0;startArrow=none;startFill=0;endArrow=none;endFill=0;" parent="1" target="7" edge="1">
                    <mxGeometry relative="1" as="geometry">
                        <mxPoint x="410" y="269" as="sourcePoint"/>
                    </mxGeometry>
                </mxCell>
                <mxCell id="25" style="edgeStyle=none;html=1;endArrow=none;endFill=0;entryX=0.5;entryY=0;entryDx=0;entryDy=0;" parent="1" source="27" target="21" edge="1">
                    <mxGeometry relative="1" as="geometry">
                        <mxPoint x="671" y="310" as="targetPoint"/>
                        <Array as="points">
                            <mxPoint x="518" y="336"/>
                        </Array>
                    </mxGeometry>
                </mxCell>
                <mxCell id="7" value="" style="rounded=1;whiteSpace=wrap;html=1;" parent="1" vertex="1">
                    <mxGeometry x="610" y="181" width="212" height="172" as="geometry"/>
                </mxCell>
                <mxCell id="8" value="" style="fillColor=#808080;aspect=fixed;sketch=0;pointerEvents=1;shadow=0;dashed=0;html=1;strokeColor=none;labelPosition=center;verticalLabelPosition=bottom;outlineConnect=0;verticalAlign=top;align=center;shape=mxgraph.openstack.neutron_subnet;" parent="1" vertex="1">
                    <mxGeometry x="586" y="131" width="50" height="50" as="geometry"/>
                </mxCell>
                <mxCell id="9" value="Virtual Network" style="text;html=1;align=center;verticalAlign=middle;resizable=0;points=[];autosize=1;strokeColor=none;fillColor=none;" parent="1" vertex="1">
                    <mxGeometry x="189.5" y="78" width="100" height="30" as="geometry"/>
                </mxCell>
                <mxCell id="11" value="Subnet_2" style="text;html=1;align=center;verticalAlign=middle;whiteSpace=wrap;rounded=0;" parent="1" vertex="1">
                    <mxGeometry x="636" y="141" width="60" height="30" as="geometry"/>
                </mxCell>
                <mxCell id="15" style="edgeStyle=none;html=1;startArrow=none;startFill=0;endArrow=none;endFill=0;exitX=0.5;exitY=0;exitDx=0;exitDy=0;exitPerimeter=0;entryX=0.5;entryY=1;entryDx=0;entryDy=0;" parent="1" source="13" target="27" edge="1">
                    <mxGeometry relative="1" as="geometry">
                        <mxPoint x="289" y="361" as="targetPoint"/>
                    </mxGeometry>
                </mxCell>
                <mxCell id="13" value="" style="outlineConnect=0;dashed=0;verticalLabelPosition=bottom;verticalAlign=top;align=center;html=1;shape=mxgraph.aws3.internet_gateway;fillColor=#F58536;gradientColor=none;" parent="1" vertex="1">
                    <mxGeometry x="328.5" y="564" width="69" height="72" as="geometry"/>
                </mxCell>
                <mxCell id="14" value="Internet Gateway" style="text;html=1;align=center;verticalAlign=middle;whiteSpace=wrap;rounded=0;" parent="1" vertex="1">
                    <mxGeometry x="333" y="648" width="60" height="30" as="geometry"/>
                </mxCell>
                <mxCell id="17" value="" style="outlineConnect=0;dashed=0;verticalLabelPosition=bottom;verticalAlign=top;align=center;html=1;shape=mxgraph.aws3.route_table;fillColor=#F58536;gradientColor=none;" parent="1" vertex="1">
                    <mxGeometry x="223" y="403" width="75" height="69" as="geometry"/>
                </mxCell>
                <mxCell id="18" value="Route Table" style="text;html=1;align=center;verticalAlign=middle;resizable=0;points=[];autosize=1;strokeColor=none;fillColor=none;" parent="1" vertex="1">
                    <mxGeometry x="223" y="477" width="82" height="26" as="geometry"/>
                </mxCell>
                <mxCell id="19" value="" style="fillColor=#3F51B5;aspect=fixed;sketch=0;pointerEvents=1;shadow=0;dashed=0;html=1;strokeColor=none;labelPosition=center;verticalLabelPosition=bottom;outlineConnect=0;verticalAlign=top;align=center;shape=mxgraph.openstack.neutron_securitygroup;" parent="1" vertex="1">
                    <mxGeometry x="795" y="84" width="50" height="50" as="geometry"/>
                </mxCell>
                <mxCell id="20" value="Security Group" style="text;html=1;align=center;verticalAlign=middle;resizable=0;points=[];autosize=1;strokeColor=none;fillColor=none;" parent="1" vertex="1">
                    <mxGeometry x="843" y="100" width="98" height="26" as="geometry"/>
                </mxCell>
                <mxCell id="21" value="" style="rounded=1;whiteSpace=wrap;html=1;" parent="1" vertex="1">
                    <mxGeometry x="607" y="408" width="220" height="170" as="geometry"/>
                </mxCell>
                <mxCell id="22" value="" style="fillColor=#808080;aspect=fixed;sketch=0;pointerEvents=1;shadow=0;dashed=0;html=1;strokeColor=none;labelPosition=center;verticalLabelPosition=bottom;outlineConnect=0;verticalAlign=top;align=center;shape=mxgraph.openstack.neutron_subnet;" parent="1" vertex="1">
                    <mxGeometry x="745" y="358" width="50" height="50" as="geometry"/>
                </mxCell>
                <mxCell id="23" value="Subnet_3" style="text;html=1;align=center;verticalAlign=middle;whiteSpace=wrap;rounded=0;" parent="1" vertex="1">
                    <mxGeometry x="795" y="368" width="60" height="30" as="geometry"/>
                </mxCell>
                <mxCell id="27" value="" style="rounded=1;whiteSpace=wrap;html=1;" parent="1" vertex="1">
                    <mxGeometry x="253" y="180" width="220" height="170" as="geometry"/>
                </mxCell>
                <mxCell id="28" value="Subnet_1" style="text;html=1;align=center;verticalAlign=middle;whiteSpace=wrap;rounded=0;" parent="1" vertex="1">
                    <mxGeometry x="289" y="141" width="60" height="30" as="geometry"/>
                </mxCell>
                <mxCell id="32" value="" style="outlineConnect=0;dashed=0;verticalLabelPosition=bottom;verticalAlign=top;align=center;html=1;shape=mxgraph.aws3.route_table;fillColor=#F58536;gradientColor=none;" vertex="1" parent="1">
                    <mxGeometry x="501.5" y="372" width="75" height="69" as="geometry"/>
                </mxCell>
                <mxCell id="33" value="Private Route Table" style="text;html=1;align=center;verticalAlign=middle;resizable=0;points=[];autosize=1;strokeColor=none;fillColor=none;" vertex="1" parent="1">
                    <mxGeometry x="481.5" y="446" width="123" height="26" as="geometry"/>
                </mxCell>
            </root>
        </mxGraphModel>
    </diagram>
</mxfile>
